Coordinates
version=1
nRows=21
nColumns=33
inDegrees=yes

Units are S.I. units (second, meters, Newtons, ...)
Angles are in degrees.

endheader
time	ground_thorax_rot_x	ground_thorax_rot_y	ground_thorax_rot_z	ground_thorax_tx	ground_thorax_ty	ground_thorax_tz	clav_prot_r	clav_elev_r	scapula_abduction_r	scapula_elevation_r	scapula_upward_rot_r	scapula_winging_r	shoulder_elv_r	plane_of_elev_r	axial_rot_r	elbow_flexion_r	pro_sup_r	wrist_flex_r	wrist_dev_r	clav_prot_l	clav_elev_l	scapula_abduction_l	scapula_elevation_l	scapula_upward_rot_l	scapula_winging_l	shoulder_elv_l	plane_of_elev_l	axial_rot_l	elbow_flexion_l	pro_sup_l	wrist_flex_l	wrist_dev_l
      2.78000000	    -39.02732350	     -9.44495522	     12.81928043	   -237.33393671	    829.09942671	      4.42270266	      9.23918448	    -45.00000000	     38.79103506	    -45.00000000	    -45.00000000	   2778.17436758	  -2985.01787105	    147.36835240	   -131.02376967	   1097.43848321	     63.04772641	     17.38209975	      3.15192079	     15.03833064	     37.83704187	    -37.28283441	    -45.00000000	    -45.00000000	  -1354.84850704	   -648.63002113	     25.03786823	    -12.08574989	    729.24671794	     23.67375103	      6.11103927	    -22.61126397
      2.79000000	    -39.06385521	     -9.40504279	     12.65152606	   -236.69266460	    829.03445289	      4.49991802	      9.24691213	    -45.00000000	     38.65845891	    -45.00000000	    -45.00000000	   2778.20725029	  -2984.95332334	    147.22858157	   -131.28472028	   1097.66175198	     64.80044009	     17.23452193	      3.05154036	     15.07245053	     37.82737868	    -37.42398202	    -45.00000000	    -45.00000000	  -1354.81371673	   -648.69397221	     25.13002233	    -11.43555951	    729.36561892	     23.03369627	      6.28385321	    -22.62319940
      2.80000000	    -39.00564539	     -9.50610192	     12.59836022	   -235.88027746	    828.96695921	      4.59420172	      9.41814108	    -45.00000000	     38.77123341	    -45.00000000	    -45.00000000	   2778.19895942	  -2984.89663186	    147.13205699	   -131.47763770	   1097.85988909	     66.48163475	     17.10134262	      2.96184424	     14.89807767	     37.73225636	    -37.30277493	    -45.00000000	    -45.00000000	  -1354.97942149	   -648.63358787	     25.21999532	    -10.83285135	    729.48599637	     22.37567544	      6.41672095	    -22.59059103
      2.81000000	    -39.00610741	     -9.61242968	     12.53262860	   -234.88550374	    828.89780160	      4.69853053	      9.59882142	    -45.00000000	     38.84464092	    -45.00000000	    -45.00000000	   2778.21098038	  -2984.89679548	    147.03772375	   -131.68590483	   1098.11295421	     68.12967455	     16.96888249	      2.86616913	     14.73615697	     37.65363272	    -37.27929481	    -45.00000000	    -45.00000000	  -1355.10182117	   -648.55399377	     25.27580643	    -10.24614847	    729.54460321	     21.68813211	      6.56919196	    -22.54303575
      2.82000000	    -39.13632914	     -9.38992739	     12.27225072	   -233.70088938	    828.82458244	      4.80677271	      9.31501044	    -45.00000000	     38.60224217	    -45.00000000	    -45.00000000	   2778.47329745	  -2984.78881208	    146.97883496	   -131.98029886	   1098.41513527	     70.39659848	     16.78285214	      2.75727024	     15.22640234	     37.83453657	    -37.61508433	    -45.00000000	    -45.00000000	  -1354.89686834	   -648.63447302	     25.73025651	     -9.83881185	    729.37244695	     20.79598859	      6.87089217	    -22.48853977
      2.83000000	    -39.12906799	     -9.49987971	     12.33931527	   -232.31159072	    828.74147875	      4.91486554	      8.86189854	    -45.00000000	     38.60916031	    -45.00000000	    -45.00000000	   2778.65201881	  -2984.62361790	    147.10837687	   -132.36350552	   1098.91811743	     73.65192112	     16.51423269	      2.62003287	     15.73480593	     38.10956555	    -37.89832671	    -45.00000000	    -45.00000000	  -1354.81917807	   -648.77334290	     25.80168314	     -9.43084990	    729.38902538	     19.53624676	      7.14621854	    -22.41498752
      2.84000000	    -39.10268404	     -9.58279749	     12.23603983	   -230.71223216	    828.64115346	      5.01962376	      9.06746099	    -45.00000000	     38.77570119	    -45.00000000	    -45.00000000	   2778.75111161	  -2984.54760972	    146.99955160	   -132.55414605	   1099.28237851	     76.61862426	     16.27742293	      2.52667426	     15.65208523	     38.07126063	    -37.94966540	    -45.00000000	    -45.00000000	  -1354.94083400	   -648.75026541	     25.96038753	     -8.96115149	    729.38649064	     18.40426221	      7.39906259	    -22.28860340
      2.85000000	    -39.10202344	     -9.63271881	     12.11726472	   -228.89092343	    828.51256683	      5.11886150	      9.18794344	    -45.00000000	     38.87932743	    -45.00000000	    -45.00000000	   2778.85693341	  -2984.45157596	    146.81841886	   -132.83859370	   1099.63326197	     79.59578078	     16.05917263	      2.45422323	     15.62987996	     38.03906708	    -38.09142709	    -45.00000000	    -45.00000000	  -1354.99742377	   -648.70792601	     26.10816674	     -8.47709286	    729.43819234	     17.27412744	      7.66170024	    -22.16593422
      2.86000000	    -39.13611581	     -9.67167008	     12.04908095	   -226.83826647	    828.34443593	      5.21135966	      9.16484722	    -45.00000000	     38.91870655	    -45.00000000	    -45.00000000	   2779.01766504	  -2984.42271276	    146.77194283	   -133.20279200	   1100.07216428	     82.87018323	     15.80639638	      2.38098207	     15.81832211	     38.09842214	    -38.30708487	    -45.00000000	    -45.00000000	  -1355.04121318	   -648.67071359	     26.30288480	     -8.00106831	    729.46279083	     16.06490153	      7.96784429	    -22.03024882
      2.87000000	    -39.13918876	     -9.73021740	     12.00010770	   -224.54199832	    828.11823961	      5.29596095	      9.39856027	    -45.00000000	     39.04180845	    -45.00000000	    -45.00000000	   2779.11318466	  -2984.41016420	    146.60180263	   -133.52472820	   1100.41896836	     86.00199306	     15.59249210	      2.33237316	     15.68953142	     38.00690413	    -38.44052380	    -45.00000000	    -45.00000000	  -1355.15756531	   -648.55841874	     26.49671388	     -7.53733031	    729.49808277	     14.92054827	      8.23893167	    -21.85757417
      2.88000000	    -39.15004876	     -9.84168824	     11.89690941	   -222.00006799	    827.82300003	      5.37185159	      9.56815436	    -45.00000000	     39.09960794	    -45.00000000	    -45.00000000	   2779.28505042	  -2984.35063480	    146.35809348	   -133.98357309	   1100.72702955	     89.11962595	     15.39583882	      2.29479655	     15.65964210	     37.94719787	    -38.65976773	    -45.00000000	    -45.00000000	  -1355.20573137	   -648.58001349	     26.64886956	     -7.13230695	    729.53232207	     13.82051131	      8.54093652	    -21.68356476
      2.89000000	    -39.16975382	     -9.97915788	     11.93725704	   -219.21420064	    827.44585738	      5.43781079	      9.25501690	    -45.00000000	     39.16949199	    -45.00000000	    -45.00000000	   2779.57375517	  -2984.20658129	    146.40335632	   -134.58972008	   1101.22705262	     92.91544899	     15.18247293	      2.24107679	     16.20745902	     38.15611485	    -39.06942762	    -45.00000000	    -45.00000000	  -1355.18932870	   -648.70536712	     26.72077842	     -6.78972347	    729.61639372	     12.56803819	      8.83318633	    -21.50264028
      2.90000000	    -39.17408572	    -10.22431791	     12.00430144	   -216.19885253	    826.98205015	      5.49276868	      9.36296596	    -45.00000000	     39.35077322	    -45.00000000	    -45.00000000	   2779.79641143	  -2984.14972352	    146.34237826	   -134.97943537	   1101.65366754	     96.61054376	     14.97338672	      2.20045292	     16.17158223	     38.18015387	    -39.24882887	    -45.00000000	    -45.00000000	  -1355.29834820	   -648.65835813	     26.82544497	     -6.52655003	    729.65613702	     11.44414271	      9.14146774	    -21.28718348
      2.91000000	    -39.21231370	    -10.25735684	     11.97795918	   -212.96084969	    826.41531521	      5.53559703	      9.15222511	    -45.00000000	     39.25906122	    -45.00000000	    -45.00000000	   2779.97394925	  -2985.39975482	    147.02943435	   -117.37315495	   1104.94637678	    167.96265979	     11.36848030	      5.71966324	     16.17950138	     38.28678959	    -39.55298780	    -45.00000000	    -45.00000000	  -1355.60687999	   -648.71445854	     26.46146931	     -8.67901816	    729.58260834	     -0.14829110	     10.51674209	    -19.64436583
      2.92000000	    -39.30442060	    -10.42274238	     11.85765167	   -209.52275041	    825.74088326	      5.56665394	      9.38620241	    -45.00000000	     39.55293316	    -45.00000000	    -44.37009396	   2780.31175716	  -2985.41112689	    147.07389538	   -117.64176125	   1104.96586819	    168.66619402	     11.24887271	      5.64343525	     16.31512457	     38.50719161	    -39.73926635	    -45.00000000	    -44.15431832	  -1355.46187613	   -649.02305120	     26.59565599	     -8.58929473	    729.59285838	      1.18054834	     10.55270050	    -19.69982062
      2.93000000	    -39.39860037	    -10.46368322	     11.67301989	   -205.88889082	    824.94229871	      5.58734421	      9.42423719	    -45.00000000	     39.72212888	    -45.00000000	    -43.84975927	   2780.62571549	  -2985.43597273	    147.01835647	   -118.19474374	   1104.94649893	    169.79424311	     11.11571796	      5.53175707	     16.31789278	     38.69267598	    -39.92881913	    -45.00000000	    -43.46181991	  -1355.58921159	   -649.11299929	     26.67588008	     -8.25307498	    729.62385126	      2.14931108	     10.70986437	    -19.67072541
      2.94000000	    -39.52444516	    -10.46246112	     11.33899105	   -202.07178172	    824.00762104	      5.60046865	      9.48013017	    -45.00000000	     40.08329347	    -45.00000000	    -42.65144552	   2780.93487652	  -2985.56139693	    147.08129876	   -118.08105157	   1104.94604216	    171.00221914	     10.96893734	      5.45500589	     16.28878704	     38.95424303	    -40.09303268	    -45.00000000	    -42.55789856	  -1355.64888798	   -649.33351250	     26.84044899	     -7.83233192	    729.54146872	      2.86775236	     10.93172572	    -19.57115673
      2.95000000	    -39.62777460	    -10.57608811	     11.25826014	   -198.06855690	    822.91807458	      5.60959003	      9.49274497	    -45.00000000	     40.24524307	    -45.00000000	    -42.02966665	   2781.23748494	  -2985.63835527	    147.07303537	   -118.20522363	   1104.92636294	    172.59032625	     10.82067076	      5.38351178	     16.30741478	     39.10315183	    -40.35736889	    -45.00000000	    -41.96175638	  -1355.80057396	   -649.43576600	     26.87020569	     -7.35008835	    729.52997175	      3.50059415	     11.11376093	    -19.46806263
      2.96000000	    -39.73697793	    -10.61781601	     11.08551217	   -193.89358887	    821.66759853	      5.62034170	      9.45727829	    -45.00000000	     40.40287864	    -45.00000000	    -41.43398060	   2781.61993448	  -2985.70866083	    147.03607457	   -118.44475341	   1104.86388692	    174.47952528	     10.67483702	      5.31202468	     16.46304205	     39.31721666	    -40.65381962	    -45.00000000	    -41.32784147	  -1355.91978740	   -649.65311553	     26.98007767	     -6.98623365	    729.47093603	      4.18967837	     11.30799212	    -19.36076468
      2.97000000	    -39.87899585	    -10.71620057	     11.00367307	   -189.55267230	    820.25126102	      5.63602186	      9.41195411	    -45.00000000	     40.53721288	    -45.00000000	    -40.47758712	   2781.95655763	  -2985.90448368	    147.09229562	   -118.14960239	   1104.82101406	    176.49817217	     10.52070566	      5.22196694	     16.64878818	     39.51736447	    -40.92897920	    -45.00000000	    -40.75010783	  -1356.10709780	   -649.79298923	     27.06786892	     -6.28726256	    729.39264833	      4.88303123	     11.45019887	    -19.24641636
      2.98000000	    -39.99469621	    -10.59967869	     10.63940122	   -185.04391839	    818.66984822	      5.66971242	      9.25965978	    -45.00000000	     40.80983862	    -45.00000000	    -39.16036684	   2782.39449047	  -2986.07640119	    147.22286774	   -117.87097105	   1104.69003850	    178.76346936	     10.37356062	      5.07212708	     16.84337350	     39.88702470	    -41.18558351	    -45.00000000	    -39.61346022	  -1356.31528293	   -650.13107007	     27.05345612	     -5.98520189	    729.25313996	      5.89651875	     11.59684187	    -19.17432003
